<?xml version="1.0" encoding="UTF-8"?>
<svg width="455px" height="238px" viewBox="0 0 455 238" version="1.1" xmlns="http://www.w3.org/2000/svg" xmlns:xlink="http://www.w3.org/1999/xlink">
    <!-- Generator: Sketch 54.1 (76490) - https://sketchapp.com -->
    <title>Group</title>
    <desc>Created with Sketch.</desc>
    <defs>
        <filter x="0.0%" y="-0.0%" width="100.0%" height="100.0%" filterUnits="objectBoundingBox" id="filter-1">
            <feGaussianBlur stdDeviation="0" in="SourceGraphic"></feGaussianBlur>
        </filter>
    </defs>
    <g id="Page-2" stroke="none" stroke-width="1" fill="none" fill-rule="evenodd">
        <g id="Group">
            <path d="M0,8.63252031 C62.0362714,0.948510295 105.102338,-1.60571076 129.198201,0.969857163 C149.938945,3.18680196 174.879685,10.3715193 196.947016,23.3363213 C200.516729,25.4335669 211.946672,34.1042775 204.171522,45.875317 C198.988088,53.7226766 187.625816,65.7846261 170.084706,82.0611654 L226,117.081565 C215.166737,141.410198 199.778564,160.719286 179.83548,175.008829 C159.892396,189.298372 121.585534,207.962096 64.9148936,231 C39.6218827,181.918103 23.3203743,144.856856 16.0103682,119.81626 C8.70036211,94.7756641 3.36357271,57.7144175 0,8.63252031 Z" id="Rectangle" fill="#FFF3BF"></path>
            <path d="M216.041861,78.0986302 C221.738298,68.1693781 228.351781,60.8329112 235.882313,56.0892294 C258.52592,41.8254204 294.439652,29.4299729 310.953125,24.6794318 C327.230758,19.9967362 353.917169,13.919747 383.013102,13.0795188 C391.035944,12.8478363 405.412873,13.0483654 420.31968,14.6852805 C422.889679,14.9674918 426.004165,15.6206545 429.663141,16.6447687 C432.173568,18.9041089 433.428781,21.6057506 433.428781,24.7496937 C432.535974,25.3646 415.237588,35.5864054 403.361421,48.512496 C391.412771,61.5174777 384.88907,77.2279615 385.031895,78.0986302 C385.914121,83.4767227 384.921364,85.2829843 388.434613,92.5633525 C389.357583,94.4759854 391.374264,102.198376 401.033606,110.678981 C407.963332,116.763067 444.502641,141.802247 452.75923,165.819942 C454.253077,170.16541 455,174.98971 455,180.292841 C453.6821,183.133767 452.403531,185.137234 451.164292,186.30324 C446.780353,190.42811 440.963222,193.227397 437.915158,194.91122 C411.101296,209.723843 384.308671,216.829077 363.492918,222.21649 C345.894475,226.771217 313.145036,235.229615 282.075238,237.643697 C272.339609,238.400142 259.468657,237.952115 243.462381,236.299615 C240.58796,235.743927 238.60601,234.184523 237.516531,231.621404 C236.427052,229.058285 236.842382,224.438327 238.76252,217.76153 C242.266524,207.38094 246.163131,199.255755 250.452341,193.385976 C254.74155,187.516196 263.238449,179.904306 275.943038,170.550305 C267.21997,156.605007 260.875233,146.696862 256.908827,140.825871 C248.083205,127.762371 240.141315,116.683976 235.882313,110.678981 C234.284638,108.426334 231.911714,104.627396 230.437964,102.633446 C225.958978,96.5734794 222.054929,92.6684513 219.511814,88.9602245 C216.914992,85.1736863 215.758342,81.5531549 216.041861,78.0986302 Z" id="Rectangle" fill="#FFF3BF" filter="url(#filter-1)"></path>
            <path d="M270.274261,161.54023 L451.075195,161.54023 C451.079548,161.57078 451.381799,162.132706 451.889893,163.38373 C452.023465,163.712611 452.247647,164.327111 452.562439,165.22723 L272.559814,165.22723 L270.274261,161.54023 Z" id="Rectangle-Copy" fill="#FFFFFF"></path>
            <path d="M433.231628,138 C433.235861,138.029707 433.884988,138.587402 435.026184,139.771179 C435.356284,140.113597 435.932985,140.752203 436.756287,141.687 L257.455444,141.687 C256.103434,139.625362 255.329631,138.471069 255.134033,138.224121 C254.938436,137.977173 314.304301,137.902466 433.231628,138 Z" id="Rectangle-Copy" fill="#FFFFFF"></path>
            <path d="M30.9449463,160 L197.340571,160 C197.346175,160.042597 196.141658,161.227442 193.72702,163.554535 L32.5397416,163.674177 L30.9449463,160 Z" id="Rectangle-Copy" fill="#FFFFFF"></path>
            <path d="M21.7780762,137 C21.7780762,136.257416 86.3237508,136.257416 215.4151,137 C215.420608,137.035379 214.946506,137.838254 213.916748,139.337891 C213.706508,139.644063 213.366034,140.158885 212.895325,140.882355 L23.1712646,140.882355 C22.2424723,138.53712 21.7780762,137.243001 21.7780762,137 Z" id="Rectangle-Copy" fill="#FFFFFF"></path>
        </g>
    </g>
</svg>