<?xml version="1.0" encoding="UTF-8"?>
<svg width="336px" height="176px" viewBox="0 0 336 176" version="1.1" xmlns="http://www.w3.org/2000/svg" xmlns:xlink="http://www.w3.org/1999/xlink">
    <!-- Generator: Sketch 54.1 (76490) - https://sketchapp.com -->
    <title>Group</title>
    <desc>Created with Sketch.</desc>
    <defs>
        <filter x="0.0%" y="0.0%" width="100.0%" height="100.0%" filterUnits="objectBoundingBox" id="filter-1">
            <feGaussianBlur stdDeviation="0" in="SourceGraphic"></feGaussianBlur>
        </filter>
    </defs>
    <g id="Page-2" stroke="none" stroke-width="1" fill="none" fill-rule="evenodd">
        <g id="Group">
            <path d="M0,6.39030725 C45.8409616,0.702143985 77.6641172,-1.18864303 95.4694668,0.717946212 C110.795592,2.35906119 129.225254,7.67761819 145.531645,17.2749392 C148.169441,18.8274457 156.615461,25.2460236 150.870107,33.9596502 C147.03987,39.7687346 138.643855,48.6977102 125.682062,60.746577 L167,86.6707688 C158.99489,104.680276 147.623983,118.974017 132.88728,129.55199 C118.150576,140.129964 89.8441779,153.945967 47.9680851,171 C29.2781169,134.666648 17.232312,107.231699 11.8306703,88.6951536 C6.42902864,70.1586085 2.48547187,42.7236597 0,6.39030725 Z" id="Rectangle" fill="#FFF3BF"></path>
            <path d="M160.030827,58.0283227 C164.225692,50.7027412 169.095873,45.2900589 174.641369,41.7902759 C191.316159,31.2667546 217.763091,22.1216689 229.92364,18.6168253 C241.910516,15.1620365 261.562434,10.6785689 282.988727,10.0586672 C288.896762,9.887737 299.483956,10.0356829 310.461354,11.2433625 C312.353906,11.4515717 314.647419,11.9334607 317.341895,12.6890293 C319.190577,14.3559204 320.114918,16.3491315 320.114918,18.6686629 C319.457454,19.1223271 306.718893,26.663748 297.973264,36.2003304 C289.174258,45.7951169 284.370194,57.3859627 284.475371,58.0283227 C285.125043,61.9961599 284.393975,63.3287795 286.981138,68.7000734 C287.660814,70.1111715 289.145901,75.8085797 296.259057,82.0653814 C301.362119,86.5540848 328.269727,105.027435 334.349893,122.747157 C335.449964,125.953147 336,129.512408 336,133.424941 C335.029496,135.520913 334.087956,136.999026 333.175378,137.859279 C329.947038,140.902517 325.663293,142.967768 323.418694,144.210056 C303.672921,155.13848 283.942787,160.380563 268.614032,164.355277 C255.654509,167.715654 231.537767,173.956072 208.657916,175.737128 C201.488582,176.295216 192.010391,175.964672 180.223344,174.745494 C178.106615,174.335519 176.647104,173.185026 175.84481,171.294014 C175.042516,169.403002 175.348365,165.994499 176.762358,161.068507 C179.342712,153.409938 182.21218,147.415357 185.370761,143.084764 C188.529342,138.754171 194.786473,133.138288 204.142153,126.237114 C197.718472,115.948583 193.046197,108.638574 190.125329,104.307087 C183.626126,94.6691273 177.777705,86.4957334 174.641369,82.0653814 C173.464838,80.4034283 171.717413,77.6006563 170.632141,76.1295645 C167.333808,71.6586559 164.45886,68.777613 162.586105,66.0417656 C160.673802,63.2481419 159.822042,60.5769942 160.030827,58.0283227 Z" id="Rectangle" fill="#FFF3BF" filter="url(#filter-1)"></path>
            <path d="M199,119 L332.898569,119 C332.901792,119.024858 333.125635,119.48208 333.501922,120.5 C333.600844,120.7676 333.76687,121.2676 334,122 L200.692648,122 L199,119 Z" id="Rectangle-Copy" fill="#FFFFFF"></path>
            <path d="M319.399532,102.03333 C319.402654,102.057233 319.881576,102.505971 320.723542,103.458473 C320.967088,103.733993 321.392574,104.247835 322,105 L189.713077,105 C188.715573,103.341145 188.144666,102.412366 188.000355,102.213664 C187.856045,102.014962 231.65577,101.954851 319.399532,102.03333 Z" id="Rectangle-Copy" fill="#FFFFFF"></path>
            <path d="M23,118 L146,118 C146.004142,118.034781 145.113761,119.002218 143.328855,120.902311 L24.1788761,121 L23,118 Z" id="Rectangle-Copy" fill="#FFFFFF"></path>
            <path d="M16,101.37637 C16,100.874543 63.666655,100.874543 158.999965,101.37637 C159.004033,101.400278 158.653911,101.942848 157.89344,102.956277 C157.738178,103.163183 157.48674,103.511091 157.139124,104 L17.0288627,104 C16.3429542,102.415129 16,101.540586 16,101.37637 Z" id="Rectangle-Copy" fill="#FFFFFF"></path>
            <circle id="Oval" fill="#FFFFFF" cx="62" cy="41" r="8"></circle>
            <circle id="Oval" fill="#FFFFFF" cx="83" cy="103" r="8"></circle>
        </g>
    </g>
</svg>