<?xml version="1.0" encoding="UTF-8"?>
<svg width="292px" height="135px" viewBox="0 0 292 135" version="1.1" xmlns="http://www.w3.org/2000/svg" xmlns:xlink="http://www.w3.org/1999/xlink">
    <!-- Generator: Sketch 54.1 (76490) - https://sketchapp.com -->
    <title>Group</title>
    <desc>Created with Sketch.</desc>
    <defs>
        <filter x="0.0%" y="0.0%" width="100.0%" height="100.0%" filterUnits="objectBoundingBox" id="filter-1">
            <feGaussianBlur stdDeviation="0" in="SourceGraphic"></feGaussianBlur>
        </filter>
    </defs>
    <g id="Page-2" stroke="none" stroke-width="1" fill="none" fill-rule="evenodd">
        <g id="Group">
            <path d="M0,4.93286875 C39.8020326,0.542005883 67.4329162,-0.917549003 82.8926508,0.554204093 C96.1997658,1.82102969 112.201568,5.92658247 126.359811,13.3350408 C128.650113,14.5334668 135.983484,19.4881585 130.995003,26.2144668 C127.669349,30.6986724 120.379395,37.5912149 109.125143,46.8920945 L145,66.9037514 C138.049455,80.8058273 128.176512,91.8395918 115.381171,100.005045 C102.58583,108.170498 78.008418,118.835483 41.6489362,132 C25.4211195,103.953202 14.962187,82.7753464 10.2721389,68.4664344 C5.58209073,54.1575224 2.15804444,32.9796671 0,4.93286875 Z" id="Rectangle" fill="#FFF3BF"></path>
            <path d="M139.026798,44.7445602 C142.673471,39.140049 146.907207,34.999021 151.728008,32.3214762 C166.223706,24.2703484 189.214505,17.273807 199.785891,14.5923904 C210.206301,11.9492689 227.290071,8.5191461 245.916337,8.04488395 C251.052299,7.91411204 260.255939,8.02729959 269.798791,8.95124724 C271.44402,9.11053983 273.437813,9.47921389 275.78017,10.0572694 C277.387263,11.3325415 278.19081,12.8574681 278.19081,14.6320493 C277.619264,14.9791298 266.545402,20.748771 258.942667,28.0448311 C251.293531,35.3854207 247.117271,44.2531161 247.208703,44.7445602 C247.773475,47.7801946 247.137944,48.7997289 249.387012,52.9090923 C249.977867,53.9886673 251.26888,58.3475278 257.452476,63.134358 C261.88866,66.5684865 285.279934,80.7017126 290.565532,94.258367 C291.521844,96.7111427 292,99.434192 292,102.427515 C291.156323,104.03106 290.337825,105.161905 289.544505,105.820051 C286.73805,108.148311 283.014113,109.728353 281.062842,110.678778 C263.897482,119.03968 246.745718,123.05019 233.420153,126.091085 C222.154204,128.661976 201.189082,133.436272 181.299211,134.798887 C175.066779,135.225858 166.827215,134.972972 156.58052,134.040227 C154.74041,133.726572 153.47163,132.846375 152.774181,131.399637 C152.076732,129.952899 152.342613,127.345189 153.571822,123.576508 C155.814972,117.717242 158.309452,113.131026 161.055264,109.817862 C163.801076,106.504697 169.240513,102.208208 177.373577,96.9283945 C171.789353,89.0570484 167.72766,83.4644512 165.188496,80.1506029 C159.538621,72.776983 154.454482,66.5238443 151.728008,63.134358 C150.705229,61.8628638 149.18616,59.7185744 148.242713,58.5931005 C145.375413,55.1725861 142.876168,52.9684148 141.248148,50.8753267 C139.585748,48.7380363 138.845298,46.6944474 139.026798,44.7445602 Z" id="Rectangle" fill="#FFF3BF" filter="url(#filter-1)"></path>
            <path d="M173,92 L290.037268,92 C290.040085,92.0165719 290.23574,92.3213866 290.564643,93 C290.651108,93.1784003 290.796227,93.5117337 291,94 L174.479499,94 L173,92 Z" id="Rectangle-Copy" fill="#FFFFFF"></path>
            <path d="M277.729442,79.0222199 C277.732168,79.0381556 278.150331,79.337314 278.885481,79.9723157 C279.098129,80.1559951 279.469635,80.4985566 280,81 L164.495746,81 C163.624791,79.8940966 163.126313,79.2749109 163.00031,79.1424429 C162.874308,79.009975 201.117352,78.9699007 277.729442,79.0222199 Z" id="Rectangle-Copy" fill="#FFFFFF"></path>
            <path d="M20,91 L127,91 C127.003604,91.0231873 126.229044,91.6681454 124.676321,92.9348741 L21.0255264,93 L20,91 Z" id="Rectangle-Copy" fill="#FFFFFF"></path>
            <path d="M14,78.250913 C14,77.9163623 55.3333232,77.9163623 137.99997,78.250913 C138.003497,78.2668519 137.699895,78.6285652 137.040465,79.3041846 C136.905833,79.4421221 136.687802,79.6740606 136.386373,80 L14.8921606,80 C14.2973869,78.9434195 14,78.3603905 14,78.250913 Z" id="Rectangle-Copy" fill="#FFFFFF"></path>
            <ellipse id="Oval" fill="#FFFFFF" cx="53" cy="32" rx="7" ry="6"></ellipse>
            <ellipse id="Oval" fill="#FFFFFF" cx="72" cy="79" rx="7" ry="6"></ellipse>
        </g>
    </g>
</svg>