<!DOCTYPE svg PUBLIC "-//W3C//DTD SVG 20010904//EN" "http://www.w3.org/TR/2001/REC-SVG-20010904/DTD/svg10.dtd">
<svg version="1.0" xmlns="http://www.w3.org/2000/svg" width="332px" height="242px" viewBox="0 0 3320 2420" preserveAspectRatio="xMidYMid meet">
<g id="layer101" fill="#070707" stroke="none">
 <path d="M0 1210 l0 -1210 1660 0 1660 0 0 1210 0 1210 -1660 0 -1660 0 0 -1210z"/>
 </g>
<g id="layer102" fill="#483d18" stroke="none">
 <path d="M2333 2210 c-13 -5 -23 -14 -23 -21 0 -7 7 -8 18 -4 53 23 92 12 92 -24 0 -13 -8 -16 -39 -13 -54 5 -81 -22 -81 -82 0 -55 30 -96 70 -96 16 0 32 5 35 10 5 8 11 7 21 -1 21 -17 26 8 23 110 -3 70 -8 93 -23 110 -20 22 -55 26 -93 11z m82 -145 c0 -56 -2 -60 -28 -69 -37 -14 -62 11 -62 63 0 50 20 73 59 69 31 -3 31 -3 31 -63z"/>
 <path d="M300 2025 c0 -77 4 -125 10 -125 6 0 10 21 10 47 0 37 3 44 12 35 21 -21 75 -15 92 10 23 32 21 120 -2 141 -22 20 -73 22 -90 5 -9 -9 -12 -9 -12 0 0 7 -4 12 -10 12 -6 0 -10 -48 -10 -125z m110 86 c15 -30 12 -82 -7 -103 -36 -40 -83 -8 -83 57 0 22 5 46 12 53 19 19 66 15 78 -7z"/>
 <path d="M570 2060 c0 -53 4 -90 10 -90 6 0 10 5 10 12 0 9 3 9 12 0 13 -13 48 -16 48 -4 0 4 -13 13 -30 19 -29 11 -30 13 -30 82 0 41 -4 71 -10 71 -6 0 -10 -37 -10 -90z"/>
 <path d="M772 2127 c-16 -16 -22 -36 -22 -66 0 -97 118 -129 149 -40 16 47 14 73 -10 103 -27 35 -86 36 -117 3z m96 -9 c18 -18 15 -88 -5 -110 -50 -56 -113 17 -83 96 8 21 16 26 43 26 18 0 38 -5 45 -12z"/>
 <path d="M1041 2078 c-12 -40 -25 -81 -28 -92 -3 -12 -1 -17 8 -14 8 3 23 36 34 74 l19 69 21 -69 c12 -38 26 -71 32 -73 7 -3 21 24 33 66 12 39 23 71 25 71 2 0 11 -31 20 -70 16 -64 35 -94 35 -54 0 34 -44 164 -55 164 -6 0 -17 -19 -24 -42 -30 -99 -31 -100 -55 -29 -12 36 -27 66 -33 68 -6 2 -21 -29 -32 -69z"/>
 <path d="M1360 2066 c0 -78 10 -111 25 -86 4 7 12 7 25 0 59 -32 90 2 90 98 0 41 -4 72 -10 72 -6 0 -10 -27 -10 -61 0 -72 -12 -99 -45 -99 -36 0 -55 35 -55 102 0 32 -4 58 -10 58 -6 0 -10 -35 -10 -84z"/>
 <path d="M1802 2134 c-12 -8 -22 -19 -22 -25 0 -15 27 -10 34 7 9 23 71 15 71 -10 0 -10 -7 -22 -15 -26 -66 -30 -75 -38 -78 -60 -5 -30 21 -50 63 -50 35 0 72 31 60 50 -5 8 -13 5 -26 -9 -21 -23 -45 -26 -69 -11 -22 14 -1 42 41 53 45 12 59 24 59 53 0 42 -73 60 -118 28z"/>
 <path d="M2050 2131 c-13 -25 -13 -161 0 -161 6 0 10 24 10 54 0 69 14 106 39 106 46 0 51 -9 51 -87 0 -55 3 -74 13 -71 8 3 13 33 15 90 l3 85 -60 2 c-50 1 -62 -2 -71 -18z"/>
 <path d="M2575 2128 c-19 -29 -19 -34 5 -58 13 -13 33 -20 61 -20 38 0 40 -1 37 -27 -2 -22 -9 -29 -31 -31 -17 -2 -37 4 -48 14 -10 9 -22 14 -27 10 -11 -12 38 -46 67 -46 51 0 71 33 71 118 l0 58 -60 2 c-51 1 -61 -1 -75 -20z m93 -10 c7 -7 12 -23 12 -36 0 -18 -4 -23 -16 -18 -9 3 -27 6 -40 6 -26 0 -40 20 -30 45 7 18 57 20 74 3z"/>
 <path d="M2840 2062 l0 -88 40 -1 c22 -1 40 2 40 8 0 5 -6 9 -14 9 -32 0 -46 30 -46 96 0 36 -4 64 -10 64 -6 0 -10 -36 -10 -88z"/>
 <path d="M314 1506 l-34 -34 0 -562 0 -562 34 -34 35 -35 443 3 c442 3 443 3 490 26 54 27 113 88 134 138 9 21 14 70 14 133 0 103 -11 154 -53 238 l-21 43 55 53 c66 65 103 138 119 236 28 167 -25 300 -145 364 -39 22 -49 22 -538 25 l-498 3 -35 -35z m987 -223 c16 -39 -3 -143 -32 -184 -45 -64 -71 -69 -386 -69 l-283 0 0 -114 0 -114 228 -4 c248 -4 272 -9 324 -64 15 -16 32 -42 37 -57 15 -38 14 -140 -1 -155 -9 -9 -99 -12 -345 -12 l-333 0 0 400 0 400 390 0 390 0 11 -27z"/>
 <path d="M1692 1428 l3 -113 465 -5 c429 -5 468 -6 494 -23 72 -48 73 -179 1 -235 -27 -21 -35 -22 -320 -22 -167 0 -316 -5 -350 -11 -204 -38 -331 -222 -296 -432 21 -126 92 -220 211 -276 l55 -26 438 -3 438 -3 -3 113 -3 113 -415 5 c-228 3 -423 9 -432 13 -34 17 -62 78 -62 134 1 58 19 93 61 120 24 16 60 18 333 20 168 1 323 4 344 8 56 8 150 61 192 108 20 22 48 65 63 96 23 49 26 69 26 161 0 100 -2 108 -34 173 -39 78 -87 122 -177 164 l-59 28 -488 3 -488 3 3 -113z"/>
 </g>
<g id="layer103" fill="#65551f" stroke="none">
 <path d="M2333 2210 c-13 -5 -23 -14 -23 -20 0 -13 17 -13 25 0 9 14 58 13 73 -2 7 -7 12 -19 12 -28 0 -12 -9 -15 -39 -12 -32 3 -42 -1 -60 -23 -44 -57 -13 -155 49 -155 16 0 32 5 35 10 5 8 11 7 21 -1 22 -18 27 10 22 113 -4 80 -7 93 -27 109 -25 20 -53 23 -88 9z m85 -138 c3 -59 -8 -82 -43 -82 -31 0 -50 26 -49 69 0 60 9 73 51 69 l38 -3 3 -53z"/>
 <path d="M300 2025 c0 -77 4 -125 10 -125 6 0 10 20 10 45 0 42 2 45 19 35 58 -30 101 4 101 80 0 60 -21 90 -64 90 -17 0 -37 -5 -44 -12 -9 -9 -12 -9 -12 0 0 7 -4 12 -10 12 -6 0 -10 -48 -10 -125z m110 86 c5 -11 10 -34 10 -51 0 -17 -5 -40 -10 -51 -13 -23 -53 -25 -74 -3 -19 18 -22 94 -4 112 19 19 66 15 78 -7z"/>
 <path d="M570 2060 c0 -53 4 -90 10 -90 6 0 10 5 10 12 0 9 3 9 12 0 13 -13 48 -16 48 -4 0 4 -13 13 -30 19 -29 11 -30 13 -30 82 0 41 -4 71 -10 71 -6 0 -10 -37 -10 -90z"/>
 <path d="M772 2127 c-50 -53 -13 -157 55 -157 70 1 108 95 62 154 -27 35 -86 36 -117 3z m99 -13 c19 -23 15 -95 -7 -111 -44 -32 -94 0 -94 62 0 64 63 94 101 49z"/>
 <path d="M1051 2113 c-6 -21 -17 -60 -25 -88 -9 -27 -13 -51 -11 -53 10 -11 23 13 40 75 l18 68 25 -73 c13 -39 27 -72 32 -72 4 0 18 33 30 73 25 78 24 79 50 -20 10 -38 30 -60 30 -33 0 29 -46 160 -55 160 -7 0 -17 -19 -24 -42 -30 -99 -31 -100 -55 -29 -12 36 -27 66 -34 69 -6 2 -16 -14 -21 -35z"/>
 <path d="M1360 2066 c0 -47 5 -88 10 -91 6 -3 10 1 10 10 0 15 2 15 22 1 32 -22 64 -20 82 6 18 25 23 158 6 158 -6 0 -10 -27 -10 -61 0 -72 -12 -99 -45 -99 -36 0 -55 35 -55 102 0 32 -4 58 -10 58 -6 0 -10 -35 -10 -84z"/>
 <path d="M1799 2131 c-34 -27 -17 -37 18 -11 24 17 34 19 56 11 15 -6 27 -14 27 -19 0 -14 -35 -42 -51 -42 -26 0 -59 -31 -59 -55 0 -45 69 -60 111 -26 18 15 21 22 12 31 -8 9 -14 7 -23 -10 -15 -28 -75 -25 -75 4 0 19 4 23 68 50 40 17 48 43 21 70 -21 22 -77 20 -105 -3z"/>
 <path d="M2056 2134 c-18 -18 -23 -164 -6 -164 6 0 10 29 10 68 0 73 10 92 46 92 40 0 54 -26 54 -96 0 -41 4 -63 10 -59 6 3 10 44 10 91 0 49 -4 84 -10 84 -5 0 -10 -5 -10 -12 0 -9 -3 -9 -12 0 -17 17 -74 15 -92 -4z"/>
 <path d="M2582 2138 c-7 -7 -12 -24 -12 -40 0 -33 24 -48 75 -48 34 0 36 -2 33 -27 -2 -22 -9 -29 -31 -31 -17 -2 -37 4 -48 14 -10 9 -22 14 -27 10 -11 -12 38 -46 67 -46 51 0 71 33 71 117 l0 58 -58 2 c-35 2 -63 -2 -70 -9z m86 -20 c7 -7 12 -23 12 -36 0 -23 -3 -24 -37 -17 -21 4 -41 9 -45 11 -10 6 -10 38 -1 47 11 11 58 8 71 -5z"/>
 <path d="M2840 2059 c0 -78 2 -90 14 -80 10 8 16 9 21 1 7 -12 45 -14 45 -2 0 4 -13 13 -30 19 -29 11 -30 13 -30 82 0 41 -4 71 -10 71 -6 0 -10 -37 -10 -91z"/>
 <path d="M345 1531 c-11 -5 -29 -19 -40 -31 -19 -21 -20 -38 -23 -579 -2 -542 -2 -557 18 -589 11 -18 32 -37 47 -43 17 -6 180 -9 457 -7 387 3 435 5 469 21 58 27 112 82 137 139 19 45 22 65 18 162 -3 103 -6 116 -40 185 l-36 75 27 20 c87 67 136 159 152 286 5 46 7 102 4 124 -16 96 -71 177 -150 219 -39 22 -49 22 -530 24 -269 1 -499 -2 -510 -6z m956 -248 c16 -39 -3 -143 -32 -184 -45 -64 -71 -69 -386 -69 l-283 0 0 -114 0 -114 228 -4 c220 -3 229 -4 277 -28 65 -34 95 -89 95 -175 0 -34 -5 -66 -12 -73 -9 -9 -99 -12 -345 -12 l-333 0 0 400 0 400 390 0 390 0 11 -27z"/>
 <path d="M1692 1428 l3 -113 465 -5 c429 -5 468 -6 494 -23 70 -46 73 -172 6 -232 -21 -19 -40 -20 -354 -25 -383 -7 -401 -10 -502 -102 -69 -63 -104 -131 -115 -222 -22 -177 54 -320 211 -395 l55 -26 438 -3 438 -3 -3 113 -3 113 -415 5 c-228 3 -423 9 -432 13 -34 17 -62 78 -62 134 1 58 19 93 61 120 24 16 64 19 363 23 l335 5 55 26 c82 39 135 90 172 167 31 62 33 73 33 172 0 100 -2 108 -34 173 -39 78 -87 122 -177 164 l-59 28 -488 3 -488 3 3 -113z"/>
 </g>
<g id="layer104" fill="#705e22" stroke="none">
 <path d="M2333 2210 c-13 -5 -23 -14 -23 -20 0 -13 17 -13 25 0 9 14 58 13 73 -2 7 -7 12 -19 12 -28 0 -12 -9 -15 -39 -12 -32 3 -42 -1 -60 -23 -55 -71 9 -190 79 -145 9 5 19 5 27 -2 10 -8 13 11 13 100 0 103 -2 112 -22 126 -25 18 -52 19 -85 6z m85 -138 c3 -59 -8 -82 -43 -82 -31 0 -50 26 -49 69 0 60 9 73 51 69 l38 -3 3 -53z"/>
 <path d="M300 2025 c0 -77 4 -125 10 -125 6 0 10 20 10 45 0 42 2 45 19 35 58 -30 101 4 101 80 0 60 -21 90 -64 90 -17 0 -37 -5 -44 -12 -9 -9 -12 -9 -12 0 0 7 -4 12 -10 12 -6 0 -10 -48 -10 -125z m110 86 c5 -11 10 -34 10 -51 0 -17 -5 -40 -10 -51 -13 -23 -53 -25 -74 -3 -19 18 -22 94 -4 112 19 19 66 15 78 -7z"/>
 <path d="M570 2060 c0 -53 4 -90 10 -90 6 0 10 5 10 12 0 9 3 9 12 0 13 -13 48 -16 48 -4 0 4 -13 13 -30 19 -29 11 -30 13 -30 82 0 41 -4 71 -10 71 -6 0 -10 -37 -10 -90z"/>
 <path d="M771 2124 c-30 -38 -28 -98 4 -129 50 -51 118 -19 130 60 6 32 3 45 -15 68 -30 38 -90 38 -119 1z m89 -2 c30 -25 34 -97 5 -118 -45 -33 -95 -4 -95 56 0 38 14 64 40 73 24 9 27 8 50 -11z"/>
 <path d="M1050 2108 c-6 -24 -18 -63 -25 -87 -8 -25 -13 -46 -11 -49 11 -11 24 13 41 75 l18 68 22 -65 c12 -36 27 -65 35 -65 7 0 21 29 33 65 l20 65 13 -35 c7 -19 13 -44 13 -55 2 -25 18 -52 27 -43 10 11 -38 168 -51 168 -7 0 -17 -19 -24 -42 -30 -99 -31 -100 -55 -29 -12 36 -27 66 -34 69 -6 2 -16 -16 -22 -40z"/>
 <path d="M1360 2066 c0 -47 5 -88 10 -91 6 -3 10 1 10 10 0 15 2 15 22 1 32 -22 64 -20 82 6 18 25 23 158 6 158 -6 0 -10 -27 -10 -61 0 -72 -12 -99 -45 -99 -36 0 -55 35 -55 102 0 32 -4 58 -10 58 -6 0 -10 -35 -10 -84z"/>
 <path d="M1799 2131 c-13 -11 -20 -23 -16 -28 5 -4 14 0 21 9 18 24 57 31 81 14 19 -14 19 -15 2 -34 -10 -11 -30 -23 -45 -27 -54 -13 -68 -47 -34 -78 25 -23 64 -21 93 2 18 15 21 22 12 31 -8 9 -14 7 -23 -10 -15 -28 -75 -25 -75 4 0 19 4 23 68 50 40 17 48 43 21 70 -21 22 -77 20 -105 -3z"/>
 <path d="M2056 2134 c-18 -18 -23 -154 -6 -154 6 0 10 28 10 63 0 70 10 87 52 87 36 0 48 -24 48 -100 0 -38 4 -59 10 -55 6 3 10 44 10 91 0 49 -4 84 -10 84 -5 0 -10 -5 -10 -12 0 -9 -3 -9 -12 0 -17 17 -74 15 -92 -4z"/>
 <path d="M2582 2138 c-35 -35 2 -88 62 -88 35 0 37 -2 34 -27 -2 -22 -9 -29 -31 -31 -17 -2 -37 4 -48 14 -10 9 -22 14 -27 10 -12 -13 38 -46 68 -46 45 0 60 23 60 90 0 32 2 64 5 72 7 18 -106 23 -123 6z m86 -20 c7 -7 12 -23 12 -36 0 -23 -3 -24 -37 -17 -21 4 -41 9 -45 11 -10 6 -10 38 -1 47 11 11 58 8 71 -5z"/>
 <path d="M2840 2059 c0 -78 2 -90 14 -80 10 8 16 9 21 1 8 -13 45 -13 45 0 0 6 -8 10 -18 10 -32 0 -42 22 -42 92 0 39 -4 68 -10 68 -6 0 -10 -37 -10 -91z"/>
 <path d="M345 1531 c-11 -5 -29 -19 -40 -31 -19 -21 -20 -38 -23 -579 -2 -542 -2 -557 18 -589 11 -18 32 -37 47 -43 17 -6 181 -9 457 -7 430 3 431 3 478 27 56 27 103 78 130 139 17 38 19 62 16 156 -3 103 -6 116 -39 184 l-36 74 57 54 c70 66 106 142 120 246 17 136 -12 243 -85 306 -79 70 -48 67 -590 69 -269 1 -499 -2 -510 -6z m956 -248 c15 -37 -3 -147 -29 -182 -10 -14 -38 -36 -62 -48 -43 -22 -53 -23 -327 -23 l-283 0 0 -114 0 -114 233 -3 c232 -4 232 -4 279 -31 60 -36 88 -91 88 -174 0 -33 -5 -65 -12 -72 -9 -9 -99 -12 -345 -12 l-333 0 0 400 0 400 390 0 390 0 11 -27z"/>
 <path d="M1692 1428 l3 -113 465 -5 c429 -5 468 -6 494 -23 70 -46 73 -172 6 -232 -21 -19 -41 -20 -354 -26 -317 -5 -333 -7 -390 -29 -118 -47 -212 -165 -226 -284 -22 -186 52 -329 210 -405 l55 -26 438 -3 438 -3 -3 113 -3 113 -415 5 c-228 3 -423 9 -432 13 -34 17 -62 78 -62 134 1 58 19 93 61 120 24 16 64 19 363 23 l335 5 55 26 c82 39 135 91 171 166 60 125 49 277 -27 390 -38 55 -81 89 -159 125 -50 23 -53 23 -538 26 l-488 3 3 -113z"/>
 </g>
<g id="layer105" fill="#90782a" stroke="none">
 <path d="M2333 2208 c-13 -6 -23 -15 -23 -20 0 -11 17 -10 25 2 9 14 58 13 73 -2 7 -7 12 -19 12 -28 0 -12 -9 -15 -39 -12 -32 3 -42 0 -61 -25 -17 -22 -21 -37 -17 -71 6 -58 32 -86 72 -77 16 3 38 7 48 8 15 1 17 13 17 104 0 94 -2 103 -22 117 -26 18 -53 19 -85 4z m85 -136 c3 -59 -8 -82 -43 -82 -29 0 -45 19 -52 63 -8 53 10 79 55 75 l37 -3 3 -53z"/>
 <path d="M300 2025 c0 -77 4 -125 10 -125 6 0 10 20 10 45 0 42 2 45 19 35 53 -28 101 10 101 81 0 59 -22 89 -64 89 -17 0 -37 -5 -44 -12 -9 -9 -12 -9 -12 0 0 7 -4 12 -10 12 -6 0 -10 -48 -10 -125z m108 93 c15 -15 16 -82 2 -109 -12 -22 -59 -26 -78 -7 -16 16 -16 100 0 116 7 7 24 12 38 12 14 0 31 -5 38 -12z"/>
 <path d="M570 2060 c0 -53 4 -90 10 -90 6 0 10 5 10 12 0 9 3 9 12 0 15 -15 48 -16 48 -2 0 6 -8 10 -18 10 -32 0 -42 22 -42 92 0 39 -4 68 -10 68 -6 0 -10 -37 -10 -90z"/>
 <path d="M775 2125 c-35 -34 -35 -96 0 -130 54 -55 128 -14 128 70 0 57 -23 85 -70 85 -23 0 -42 -8 -58 -25z m86 -4 c31 -25 33 -96 4 -117 -45 -33 -95 -4 -95 56 0 38 14 64 40 73 24 9 27 8 51 -12z"/>
 <path d="M1050 2108 c-6 -24 -15 -56 -20 -72 -12 -37 -13 -56 -1 -56 5 0 12 15 16 33 4 17 12 47 18 65 l12 33 21 -63 c11 -35 26 -63 34 -63 7 0 21 29 33 65 l20 65 13 -35 c7 -19 13 -44 13 -55 2 -26 18 -52 27 -42 12 12 -38 167 -54 167 -5 0 -17 -28 -27 -62 -10 -35 -21 -67 -24 -73 -3 -5 -14 22 -26 60 -11 37 -26 70 -32 72 -7 3 -16 -14 -23 -39z"/>
 <path d="M1360 2066 c0 -47 5 -88 10 -91 6 -3 10 1 10 10 0 15 2 15 22 1 30 -21 54 -20 78 4 16 16 20 33 20 90 0 40 -4 70 -10 70 -6 0 -10 -27 -10 -61 0 -71 -12 -99 -44 -99 -39 0 -56 30 -56 98 0 35 -4 62 -10 62 -6 0 -10 -35 -10 -84z"/>
 <path d="M1799 2131 c-13 -11 -21 -23 -16 -27 4 -4 16 2 27 14 24 25 48 28 75 8 26 -19 13 -42 -32 -56 -66 -22 -81 -50 -45 -83 31 -28 102 -15 102 18 0 20 -16 19 -24 -1 -4 -10 -16 -14 -38 -12 -25 2 -34 8 -36 25 -3 17 3 24 25 29 49 12 83 34 83 54 0 48 -76 68 -121 31z"/>
 <path d="M2057 2132 c-19 -21 -25 -152 -7 -152 6 0 10 28 10 63 0 70 10 87 52 87 36 0 48 -24 48 -100 0 -38 4 -59 10 -55 6 3 10 44 10 91 0 49 -4 84 -10 84 -5 0 -10 -5 -10 -12 0 -9 -3 -9 -12 0 -18 18 -73 14 -91 -6z"/>
 <path d="M2582 2138 c-35 -35 2 -88 62 -88 35 0 37 -2 34 -27 -2 -22 -9 -29 -31 -31 -17 -2 -37 4 -48 14 -10 9 -22 14 -27 10 -11 -12 38 -46 67 -46 47 0 56 14 62 97 6 82 4 97 -11 73 -7 -12 -12 -12 -22 -2 -15 15 -70 16 -86 0z m86 -20 c7 -7 12 -22 12 -35 0 -18 -6 -23 -26 -23 -14 0 -34 5 -45 10 -19 10 -26 40 -12 53 11 11 58 8 71 -5z"/>
 <path d="M2840 2059 c0 -78 2 -90 14 -80 10 8 16 9 21 1 8 -13 45 -13 45 0 0 6 -8 10 -18 10 -32 0 -42 22 -42 92 0 39 -4 68 -10 68 -6 0 -10 -37 -10 -91z"/>
 <path d="M345 1531 c-11 -5 -29 -19 -40 -31 -19 -21 -20 -38 -23 -579 -2 -542 -2 -557 18 -589 11 -18 32 -37 47 -43 17 -6 181 -9 457 -7 430 3 431 3 478 27 56 27 103 78 130 139 17 38 19 62 16 156 -3 103 -6 116 -39 184 l-36 74 57 54 c70 66 106 142 120 246 17 136 -12 243 -85 306 -79 70 -48 67 -590 69 -269 1 -499 -2 -510 -6z m956 -248 c15 -37 -3 -147 -29 -182 -10 -14 -38 -36 -62 -48 -43 -22 -53 -23 -327 -23 l-283 0 0 -114 0 -114 233 -3 c232 -4 232 -4 279 -31 60 -36 88 -91 88 -174 0 -33 -5 -65 -12 -72 -9 -9 -99 -12 -345 -12 l-333 0 0 400 0 400 390 0 390 0 11 -27z"/>
 <path d="M1692 1428 l3 -113 465 -5 c429 -5 468 -6 494 -23 70 -46 73 -172 6 -232 -21 -19 -41 -20 -354 -26 -317 -5 -333 -7 -390 -29 -118 -47 -212 -165 -226 -284 -22 -186 52 -329 210 -405 l55 -26 438 -3 438 -3 -3 113 -3 113 -415 5 c-228 3 -423 9 -432 13 -34 17 -62 78 -62 134 1 58 19 93 61 120 24 16 64 19 363 23 l335 5 55 26 c82 39 135 91 171 166 60 125 49 277 -27 390 -38 55 -81 89 -159 125 -50 23 -53 23 -538 26 l-488 3 3 -113z"/>
 </g>
<g id="layer106" fill="#9f852e" stroke="none">
 <path d="M2338 2209 c-10 -5 -18 -15 -18 -21 0 -7 5 -6 14 1 25 21 69 9 84 -22 8 -16 11 -32 7 -35 -4 -4 -10 -1 -12 6 -6 17 -54 15 -80 -3 -45 -32 -38 -130 10 -153 23 -11 32 -11 57 1 21 11 30 12 34 3 2 -6 5 37 5 96 l1 107 -30 16 c-34 17 -48 18 -72 4z m80 -97 c17 -23 15 -82 -5 -104 -37 -41 -93 -9 -93 54 0 68 59 99 98 50z"/>
 <path d="M300 2025 c0 -77 4 -125 10 -125 6 0 10 20 10 45 0 42 2 45 19 35 31 -16 56 -12 79 13 30 31 31 108 2 137 -22 22 -69 27 -88 8 -9 -9 -12 -9 -12 0 0 7 -4 12 -10 12 -6 0 -10 -48 -10 -125z m105 95 c21 -23 24 -92 5 -115 -15 -18 -61 -20 -78 -3 -7 7 -12 33 -12 59 0 38 5 51 22 63 29 21 41 20 63 -4z"/>
 <path d="M570 2060 c0 -53 4 -90 10 -90 6 0 10 5 10 12 0 9 3 9 12 0 15 -15 48 -16 48 -2 0 6 -8 10 -18 10 -32 0 -42 22 -42 92 0 39 -4 68 -10 68 -6 0 -10 -37 -10 -90z"/>
 <path d="M775 2125 c-55 -54 -16 -160 57 -153 61 6 91 93 53 152 -23 35 -76 36 -110 1z m94 -11 c55 -70 -17 -165 -81 -107 -34 30 -20 111 22 126 28 10 39 7 59 -19z"/>
 <path d="M1048 2093 c-28 -97 -31 -113 -19 -113 6 0 11 7 11 16 0 9 7 41 16 71 l16 56 24 -68 c13 -38 24 -70 24 -73 0 -2 5 -2 11 0 7 2 18 28 26 58 8 30 18 59 22 63 5 5 17 -21 27 -57 10 -36 22 -66 27 -66 5 0 6 8 3 18 -3 9 -12 43 -20 75 -26 99 -36 101 -61 15 -23 -79 -31 -88 -40 -46 -10 44 -36 108 -44 108 -4 0 -14 -26 -23 -57z"/>
 <path d="M1360 2066 c0 -47 5 -88 10 -91 6 -3 10 1 10 9 0 13 4 13 29 -2 42 -24 76 -6 84 45 10 58 8 123 -3 123 -6 0 -10 -27 -10 -61 0 -71 -12 -99 -44 -99 -39 0 -56 30 -56 98 0 35 -4 62 -10 62 -6 0 -10 -35 -10 -84z"/>
 <path d="M1799 2131 c-13 -11 -21 -22 -17 -26 3 -4 16 3 27 14 23 23 43 26 72 11 30 -16 23 -39 -18 -56 -63 -27 -68 -30 -71 -48 -5 -24 26 -56 55 -56 32 0 63 17 63 35 0 20 -16 19 -24 -1 -10 -25 -70 -15 -74 13 -3 18 4 24 34 32 39 11 74 37 74 56 0 42 -81 59 -121 26z"/>
 <path d="M2059 2134 c-17 -21 -26 -154 -10 -154 7 0 11 24 11 63 0 50 4 68 19 81 17 16 23 16 48 4 26 -12 28 -17 31 -86 4 -101 22 -82 22 24 0 75 -10 107 -23 72 -4 -10 -7 -10 -18 0 -18 17 -64 15 -80 -4z"/>
 <path d="M2582 2138 c-35 -35 5 -88 66 -88 36 0 52 -21 32 -45 -17 -20 -59 -19 -82 2 -10 9 -21 13 -26 9 -11 -12 38 -46 67 -46 47 0 56 14 62 97 6 81 4 96 -10 74 -7 -10 -13 -10 -29 -2 -27 14 -65 14 -80 -1z m98 -48 c0 -27 -3 -30 -34 -30 -57 0 -78 57 -26 70 37 10 60 -6 60 -40z"/>
 <path d="M2842 2068 c-2 -71 1 -86 12 -82 8 3 17 1 21 -5 8 -14 45 -14 45 -1 0 6 -8 10 -19 10 -30 0 -46 29 -52 99 l-6 66 -1 -87z"/>
 <path d="M359 1533 c-15 -2 -37 -15 -50 -29 l-24 -26 0 -557 c0 -441 3 -563 13 -582 29 -54 25 -54 467 -57 355 -3 418 -1 471 13 72 19 123 58 162 123 26 45 27 53 26 172 0 122 -1 127 -35 198 l-35 72 61 63 c46 46 68 78 85 122 63 168 40 339 -57 425 -80 70 -80 70 -597 69 -254 -1 -473 -4 -487 -6z m939 -235 c26 -26 4 -162 -34 -207 -49 -58 -80 -63 -386 -62 l-278 2 0 -116 0 -115 193 0 c274 0 320 -10 379 -85 24 -30 42 -159 27 -187 -9 -17 -35 -18 -349 -18 l-340 0 0 400 0 400 388 0 c288 0 391 -3 400 -12z"/>
 <path d="M1692 1428 l3 -113 460 -2 c506 -3 502 -3 538 -65 38 -66 10 -182 -51 -207 -17 -7 -139 -12 -337 -14 -297 -3 -313 -4 -378 -26 -124 -44 -206 -140 -231 -271 -28 -144 17 -283 117 -363 102 -81 143 -87 624 -87 l394 0 -3 113 -3 112 -415 5 c-381 5 -418 7 -444 23 -40 27 -59 79 -51 140 9 65 45 106 105 118 25 4 174 8 331 9 181 0 299 4 320 11 108 35 191 105 235 197 23 49 28 70 28 147 1 123 -22 190 -88 263 -35 37 -72 65 -116 86 l-65 31 -488 3 -488 3 3 -113z"/>
 </g>
<g id="layer107" fill="#c0a137" stroke="none">
 <path d="M2338 2209 c-10 -5 -18 -15 -18 -21 0 -9 3 -9 12 0 7 7 26 12 44 12 26 0 34 -6 44 -30 15 -37 9 -46 -19 -29 -28 18 -72 1 -89 -35 -15 -31 -10 -82 12 -111 15 -21 70 -25 88 -7 8 8 1 10 -27 5 -46 -7 -65 12 -65 67 0 69 55 104 95 60 14 -15 17 -31 13 -69 -3 -27 -1 -56 3 -63 5 -7 9 33 9 94 l0 107 -30 16 c-34 17 -48 18 -72 4z"/>
 <path d="M300 2025 c0 -77 4 -125 10 -125 6 0 10 22 10 50 l0 49 29 -17 c29 -16 31 -16 58 4 30 23 39 56 28 111 -8 43 -43 62 -86 46 -16 -6 -29 -7 -29 -2 0 5 -4 9 -10 9 -6 0 -10 -48 -10 -125z m106 94 c21 -24 24 -90 4 -114 -15 -18 -61 -20 -78 -3 -20 20 -15 115 6 127 27 16 47 13 68 -10z"/>
 <path d="M570 2063 c0 -50 4 -82 9 -75 6 10 10 10 21 -3 14 -17 50 -21 50 -5 0 6 -8 10 -18 10 -32 0 -42 22 -42 92 0 39 -4 68 -10 68 -6 0 -10 -36 -10 -87z"/>
 <path d="M827 2143 c30 -6 63 -49 63 -82 0 -39 -26 -71 -58 -71 -36 0 -49 10 -62 44 -9 24 -7 36 8 67 21 42 13 53 -12 17 -16 -23 -21 -73 -10 -103 10 -24 60 -46 89 -39 35 9 55 41 55 89 0 49 -32 86 -71 84 -23 -2 -23 -2 -2 -6z"/>
 <path d="M1051 2103 c-7 -27 -17 -61 -22 -77 -12 -37 -11 -46 1 -46 6 0 10 7 10 16 0 9 7 41 16 71 l16 56 24 -68 c34 -97 33 -97 60 -12 19 57 34 75 40 47 14 -66 29 -110 36 -110 9 0 5 20 -22 107 -10 31 -22 59 -27 60 -5 2 -18 -25 -28 -59 -23 -79 -31 -89 -40 -46 -10 44 -36 108 -44 108 -4 0 -13 -21 -20 -47z"/>
 <path d="M1360 2066 c0 -47 5 -88 10 -91 6 -3 10 1 10 9 0 13 3 13 28 0 42 -24 77 -6 85 43 10 58 8 123 -3 123 -6 0 -10 -27 -10 -61 0 -71 -12 -99 -44 -99 -39 0 -56 30 -56 98 0 35 -4 62 -10 62 -6 0 -10 -35 -10 -84z"/>
 <path d="M1799 2131 c-13 -11 -21 -22 -17 -26 3 -4 16 3 27 14 23 23 61 27 79 9 21 -21 13 -38 -25 -54 -64 -28 -68 -30 -71 -52 -4 -23 31 -52 64 -52 23 0 61 36 51 47 -4 4 -13 -1 -20 -11 -19 -25 -71 -18 -75 10 -2 16 5 24 30 33 55 21 63 27 66 51 7 47 -65 67 -109 31z"/>
 <path d="M2059 2134 c-17 -21 -26 -154 -10 -154 7 0 11 25 11 70 0 65 2 71 25 82 19 9 29 8 49 -6 22 -14 26 -24 29 -83 3 -62 3 -60 5 22 1 60 -1 85 -8 75 -7 -12 -12 -12 -22 -2 -17 17 -63 15 -79 -4z"/>
 <path d="M2588 2139 c-25 -14 -22 -55 4 -73 12 -9 39 -16 60 -16 30 0 38 -4 38 -18 0 -10 -5 -23 -12 -30 -18 -18 -69 -15 -84 5 -7 10 -16 14 -21 10 -16 -16 40 -48 76 -43 18 3 36 8 40 11 8 9 18 165 9 165 -3 0 -8 -5 -10 -11 -3 -9 -9 -9 -25 0 -26 14 -52 14 -75 0z m82 -16 c4 -4 10 -20 14 -35 6 -27 5 -28 -32 -28 -26 0 -45 7 -57 20 -17 19 -17 21 0 40 18 19 59 21 75 3z"/>
 <path d="M2842 2065 c-1 -50 2 -84 7 -77 6 10 10 10 21 -3 14 -17 50 -21 50 -5 0 6 -8 10 -19 10 -30 0 -46 29 -52 99 l-6 66 -1 -90z"/>
 <path d="M363 1533 c-36 -7 -72 -51 -78 -96 -3 -23 -5 -276 -3 -562 2 -425 6 -524 17 -541 33 -49 30 -49 466 -52 486 -4 507 -1 586 78 56 56 79 120 79 216 0 83 -16 156 -49 227 l-28 57 62 63 c46 46 68 78 85 122 61 165 40 338 -52 421 -79 71 -60 69 -588 70 -261 1 -485 0 -497 -3z m936 -237 c18 -22 11 -118 -13 -167 -13 -27 -37 -55 -64 -72 l-43 -29 -290 1 -289 2 0 -116 0 -115 213 0 c237 0 294 -10 339 -57 34 -36 47 -72 53 -141 7 -99 33 -92 -355 -92 l-340 0 0 400 0 400 389 0 c319 0 391 -2 400 -14z"/>
 <path d="M1692 1428 l3 -113 460 -2 c506 -3 502 -3 538 -65 38 -66 10 -180 -50 -207 -20 -9 -101 -12 -294 -11 -150 0 -297 -4 -335 -10 -177 -28 -289 -131 -318 -293 -18 -95 -8 -167 32 -250 52 -104 133 -163 256 -186 37 -7 211 -11 453 -11 l394 0 -3 113 -3 112 -415 5 c-465 6 -456 4 -487 77 -19 46 -9 122 20 159 40 51 62 54 382 54 303 0 351 5 423 41 54 28 129 105 152 156 45 103 47 236 4 338 -25 60 -102 135 -174 169 l-65 31 -488 3 -488 3 3 -113z"/>
 </g>
<g id="layer108" fill="#d3b03b" stroke="none">
 <path d="M2341 2209 c-13 -5 -21 -12 -18 -15 3 -3 14 -1 25 5 25 13 66 0 76 -24 11 -31 7 -48 -11 -41 -15 6 -15 5 1 -13 15 -16 18 -31 14 -70 -3 -27 -1 -56 3 -63 5 -7 9 30 9 88 0 84 -3 104 -17 116 -25 22 -54 28 -82 17z"/>
 <path d="M300 2027 c0 -78 4 -127 10 -127 6 0 10 23 10 52 0 40 3 49 12 40 7 -7 17 -12 22 -12 6 0 0 7 -12 16 -20 14 -23 23 -21 75 2 35 -2 64 -9 71 -9 9 -12 -18 -12 -115z"/>
 <path d="M346 2142 c-3 -5 7 -7 23 -4 34 5 51 -15 58 -67 5 -36 2 -44 -27 -71 -28 -26 -29 -29 -9 -22 49 18 65 99 28 146 -20 25 -62 35 -73 18z"/>
 <path d="M570 2063 c0 -59 3 -83 10 -73 8 13 11 12 23 -4 10 -14 19 -17 33 -11 18 8 18 8 -1 13 -38 8 -45 23 -45 93 0 39 -4 69 -10 69 -6 0 -10 -36 -10 -87z"/>
 <path d="M838 2139 c55 -16 70 -92 27 -134 -16 -16 -19 -25 -10 -25 22 0 45 41 45 81 0 48 -32 89 -68 88 -26 -1 -25 -1 6 -10z"/>
 <path d="M1042 2068 c-28 -101 -21 -116 8 -17 l22 73 24 -69 c34 -97 33 -97 60 -12 19 57 34 75 40 47 15 -67 29 -110 36 -110 5 0 6 10 3 23 -4 12 -14 45 -22 72 -8 28 -17 56 -19 63 -7 25 -20 11 -31 -35 -6 -27 -17 -61 -23 -78 l-13 -30 -15 50 c-22 74 -34 105 -41 105 -3 0 -16 -37 -29 -82z"/>
 <path d="M1360 2066 c0 -47 5 -88 10 -91 6 -3 10 1 10 10 0 9 5 13 11 9 8 -5 8 -1 0 14 -6 11 -11 48 -11 81 0 34 -4 61 -10 61 -6 0 -10 -35 -10 -84z"/>
 <path d="M1478 2074 c-4 -80 -15 -99 -53 -88 -17 5 -18 4 -7 -7 11 -12 17 -11 39 1 31 18 41 44 42 118 2 81 -16 61 -21 -24z"/>
 <path d="M1854 2141 c16 -3 34 -14 40 -24 9 -15 7 -22 -13 -38 -25 -21 -21 -25 10 -9 44 24 12 82 -43 79 -19 -1 -18 -2 6 -8z"/>
 <path d="M2059 2134 c-17 -21 -26 -154 -10 -154 7 0 11 25 11 70 0 65 2 71 25 82 19 9 29 8 49 -6 22 -14 26 -24 29 -83 3 -62 3 -60 5 22 1 60 -1 85 -8 75 -7 -12 -12 -12 -22 -2 -17 17 -63 15 -79 -4z"/>
 <path d="M2338 2139 c-28 -16 -41 -82 -24 -122 12 -31 56 -58 56 -36 0 5 -7 9 -15 9 -20 0 -35 32 -35 78 0 41 18 66 55 75 l20 5 -20 1 c-11 0 -28 -4 -37 -10z"/>
 <path d="M2586 2134 c-38 -37 -1 -84 66 -84 31 0 38 -4 38 -20 0 -30 -41 -53 -74 -41 -14 6 -26 15 -26 21 0 5 -5 10 -12 10 -6 0 -1 -11 11 -24 18 -19 30 -23 59 -20 20 3 38 7 42 10 8 9 16 164 8 164 -5 0 -8 -7 -8 -16 0 -14 -2 -14 -22 0 -29 20 -62 20 -82 0z m89 -14 c7 -6 13 -22 13 -35 0 -22 -5 -25 -38 -25 -24 0 -43 7 -55 20 -17 19 -17 21 0 40 19 21 55 21 80 0z"/>
 <path d="M2843 2065 c-1 -49 1 -85 3 -78 4 8 12 8 31 -2 15 -8 31 -11 37 -7 6 4 2 8 -10 10 -37 5 -53 33 -57 102 -3 54 -3 50 -4 -25z"/>
 <path d="M784 2132 c-18 -11 -34 -49 -34 -77 0 -39 16 -62 50 -74 18 -6 28 -6 25 -1 -4 6 -13 10 -21 10 -20 0 -47 66 -38 93 3 12 13 30 22 40 16 18 14 22 -4 9z"/>
 <path d="M1792 2128 c-7 -7 -12 -16 -12 -20 0 -15 15 -8 28 12 13 22 3 27 -16 8z"/>
 <path d="M1805 2044 c-22 -22 -15 -46 18 -62 22 -11 32 -11 54 0 27 13 43 38 24 38 -6 0 -11 -7 -11 -15 0 -15 -17 -20 -55 -16 -39 3 -40 45 -1 61 16 7 17 9 4 9 -9 1 -24 -6 -33 -15z"/>
 <path d="M2383 1983 c4 -3 10 -3 14 0 3 4 0 7 -7 7 -7 0 -10 -3 -7 -7z"/>
 <path d="M364 1533 c-12 -2 -34 -18 -50 -34 l-29 -30 -3 -542 c-2 -501 -1 -545 15 -577 36 -70 39 -70 489 -70 410 1 439 4 509 42 49 27 102 90 119 141 31 94 15 242 -39 352 l-24 50 43 38 c92 78 139 190 139 331 0 107 -22 165 -86 229 -74 74 -56 72 -587 73 -261 1 -485 0 -496 -3z m939 -237 c15 -22 4 -121 -19 -171 -18 -39 -33 -55 -68 -74 -44 -23 -48 -23 -330 -22 l-286 2 0 -116 0 -115 213 0 c248 0 297 -9 346 -65 36 -41 51 -92 47 -158 -3 -52 -11 -65 -41 -68 -11 -1 -163 -1 -337 -1 l-318 2 0 400 0 400 373 2 c388 3 407 2 420 -16z"/>
 <path d="M1692 1428 l3 -113 459 -2 c507 -2 509 -3 540 -65 20 -40 20 -116 0 -157 -30 -61 -48 -64 -349 -62 -364 3 -445 -14 -549 -109 -23 -22 -54 -63 -68 -92 -25 -52 -51 -167 -43 -191 2 -7 6 -31 9 -53 9 -91 68 -179 164 -246 72 -50 145 -57 585 -58 l388 0 -3 113 -3 112 -414 3 -414 2 -33 25 c-55 42 -67 130 -28 206 28 55 54 59 383 59 299 0 302 0 382 26 70 24 86 34 133 85 71 77 99 147 100 254 1 117 -24 184 -93 255 -33 34 -81 69 -116 86 l-60 29 -488 3 -488 3 3 -113z"/>
 </g>
<g id="layer109" fill="#e5bf40" stroke="none">
 <path d="M2326 2201 c-4 -5 3 -7 14 -4 23 6 26 13 6 13 -8 0 -17 -4 -20 -9z"/>
 <path d="M2409 2191 c16 -16 19 -34 19 -111 0 -50 2 -94 6 -97 3 -4 6 39 6 94 0 84 -3 103 -18 116 -26 23 -36 21 -13 -2z"/>
 <path d="M302 2025 c1 -71 3 -106 5 -77 4 49 14 65 28 42 3 -5 10 -10 15 -10 5 0 -3 12 -17 26 -22 23 -25 31 -20 73 3 26 1 54 -4 62 -5 9 -8 -34 -7 -116z"/>
 <path d="M346 2141 c-3 -4 6 -6 19 -3 14 2 25 6 25 8 0 8 -39 4 -44 -5z"/>
 <path d="M570 2063 c0 -49 4 -82 8 -76 13 20 15 163 2 163 -6 0 -10 -33 -10 -87z"/>
 <path d="M818 2143 c6 -2 18 -2 25 0 6 3 1 5 -13 5 -14 0 -19 -2 -12 -5z"/>
 <path d="M1060 2128 c0 -19 2 -20 10 -8 13 19 13 30 0 30 -5 0 -10 -10 -10 -22z"/>
 <path d="M1177 2136 c-10 -25 -8 -34 3 -16 8 13 10 13 11 -2 3 -31 4 -36 12 -44 11 -11 8 18 -7 51 -10 25 -13 27 -19 11z"/>
 <path d="M1360 2066 c0 -47 5 -88 10 -91 6 -4 10 27 10 84 0 54 -4 91 -10 91 -6 0 -10 -35 -10 -84z"/>
 <path d="M1480 2075 c0 -60 -3 -76 -17 -84 -10 -6 -13 -11 -7 -11 23 0 37 32 42 100 3 49 1 70 -7 70 -7 0 -11 -26 -11 -75z"/>
 <path d="M1854 2141 c16 -3 34 -14 40 -24 9 -15 7 -22 -13 -38 -25 -21 -21 -25 10 -9 44 24 12 82 -43 79 -19 -1 -18 -2 6 -8z"/>
 <path d="M2068 2139 c-15 -8 -18 -23 -16 -87 l2 -77 3 70 c4 74 12 91 46 98 20 4 20 4 2 5 -11 1 -28 -3 -37 -9z"/>
 <path d="M2160 2139 c0 -6 -7 -8 -17 -5 -16 6 -16 6 0 -11 10 -12 17 -41 20 -83 3 -59 3 -57 5 23 1 48 0 87 -3 87 -3 0 -5 -5 -5 -11z"/>
 <path d="M2368 2143 c7 -3 16 -2 19 1 4 3 -2 6 -13 5 -11 0 -14 -3 -6 -6z"/>
 <path d="M2586 2134 c-36 -36 1 -84 64 -84 28 0 40 -4 40 -14 0 -26 -12 -46 -29 -47 -10 0 -12 -2 -3 -6 29 -12 42 18 41 96 -1 42 -3 68 -6 58 -4 -15 -7 -16 -21 -5 -16 12 -16 11 -1 -7 8 -11 16 -30 17 -42 1 -20 -4 -23 -38 -23 -77 0 -96 65 -25 83 19 4 18 5 -2 6 -12 0 -29 -6 -37 -15z"/>
 <path d="M2842 2065 c-1 -49 2 -83 6 -75 5 8 5 49 2 90 l-7 75 -1 -90z"/>
 <path d="M415 2115 c24 -48 19 -83 -16 -116 -28 -26 -29 -28 -8 -21 48 18 65 101 29 143 l-20 24 15 -30z"/>
 <path d="M784 2132 c-18 -12 -34 -49 -34 -80 0 -29 28 -63 63 -75 27 -10 20 2 -8 13 -46 18 -56 90 -18 133 17 18 16 22 -3 9z"/>
 <path d="M874 2120 c26 -40 21 -95 -10 -119 -15 -12 -22 -21 -15 -21 6 0 20 9 31 20 27 27 27 90 -1 121 l-21 24 16 -25z"/>
 <path d="M1795 2120 c-10 -11 -14 -20 -9 -20 5 0 15 9 22 20 7 11 11 20 9 20 -2 0 -12 -9 -22 -20z"/>
 <path d="M2314 2108 c-17 -53 5 -128 38 -128 4 0 -2 10 -13 21 -18 18 -21 30 -17 75 5 59 3 66 -8 32z"/>
 <path d="M1080 2110 c0 -7 3 -10 7 -7 3 4 3 10 0 14 -4 3 -7 0 -7 -7z"/>
 <path d="M1037 2043 c-9 -31 -15 -58 -13 -61 2 -2 12 22 21 53 9 32 14 59 12 61 -2 3 -11 -21 -20 -53z"/>
 <path d="M1160 2090 c0 -7 3 -10 7 -7 3 4 3 10 0 14 -4 3 -7 0 -7 -7z"/>
 <path d="M1090 2080 c0 -7 3 -10 7 -7 3 4 3 10 0 14 -4 3 -7 0 -7 -7z"/>
 <path d="M1150 2060 c0 -7 3 -10 7 -7 3 4 3 10 0 14 -4 3 -7 0 -7 -7z"/>
 <path d="M1100 2050 c0 -7 3 -10 7 -7 3 4 3 10 0 14 -4 3 -7 0 -7 -7z"/>
 <path d="M1215 2030 c4 -19 11 -39 16 -44 4 -5 3 8 -2 30 -14 50 -24 60 -14 14z"/>
 <path d="M1806 2041 c-14 -15 -15 -24 -6 -40 6 -12 18 -20 28 -20 15 1 15 2 0 6 -19 5 -31 30 -22 45 3 5 16 13 28 18 14 6 16 9 5 9 -9 1 -24 -8 -33 -18z"/>
 <path d="M1136 2023 c-3 -10 -9 -24 -12 -30 -3 -7 -1 -13 4 -13 5 0 13 12 16 26 8 30 2 44 -8 17z"/>
 <path d="M1110 2020 c0 -7 3 -10 7 -7 3 4 3 10 0 14 -4 3 -7 0 -7 -7z"/>
 <path d="M1888 1998 c-10 -10 -14 -18 -9 -18 10 0 36 29 30 34 -2 1 -12 -6 -21 -16z"/>
 <path d="M2585 2000 c10 -11 22 -20 27 -20 4 0 -1 9 -12 20 -11 11 -23 20 -27 20 -3 0 2 -9 12 -20z"/>
 <path d="M618 1978 c9 -9 15 -9 24 0 9 9 7 12 -12 12 -19 0 -21 -3 -12 -12z"/>
 <path d="M2880 1986 c0 -2 7 -6 15 -10 8 -3 15 -1 15 4 0 6 -7 10 -15 10 -8 0 -15 -2 -15 -4z"/>
 <path d="M361 1527 c-19 -7 -44 -25 -55 -40 -21 -28 -21 -38 -24 -556 -3 -573 -2 -586 51 -625 28 -20 40 -21 440 -23 425 -2 449 -1 523 39 36 20 87 75 110 120 45 86 18 305 -48 400 -11 15 -5 24 38 65 79 74 118 150 132 258 10 69 3 167 -11 182 -4 3 -7 15 -7 26 0 11 -29 47 -64 82 -59 58 -68 63 -128 74 -92 16 -911 14 -957 -2z m932 -221 c15 -4 18 -15 16 -73 -1 -87 -27 -145 -81 -180 l-39 -26 -294 2 -295 2 0 -115 0 -116 226 0 c219 0 227 -1 278 -25 69 -33 97 -81 102 -175 3 -49 0 -71 -10 -79 -10 -8 -115 -12 -352 -14 l-339 -2 0 405 0 405 385 -2 c212 -1 393 -4 403 -7z"/>
 <path d="M1692 1428 l3 -113 469 -2 c507 -2 495 -1 531 -57 24 -37 23 -140 -2 -174 -39 -53 -54 -55 -348 -53 -206 2 -287 -1 -341 -12 -180 -38 -275 -129 -310 -298 -8 -37 -12 -73 -9 -81 2 -7 6 -31 9 -53 9 -94 96 -213 188 -258 82 -41 154 -47 566 -47 l383 0 -3 113 -3 112 -409 2 c-459 2 -459 2 -493 73 -14 30 -15 44 -5 98 20 121 24 122 401 122 270 0 305 2 362 20 189 59 283 232 243 445 -15 84 -105 197 -182 231 -20 8 -46 21 -57 27 -14 9 -160 13 -508 15 l-488 3 3 -113z"/>
 </g>

</svg>